<svg height="1230" width="720" xmlns="http://www.w3.org/2000/svg">
<rect height="1230" fill="#555" width="720"></rect>
<text fill="#7f7" font-family="Courier New" font-size="12" xml:space="preserve">
<tspan x="10" y="26">23 megabytes installed</tspan>
<tspan x="10" y="42"></tspan>
<tspan x="10" y="58">node_modules</tspan>
<tspan x="10" y="74">└─┬ halacious@4.0.0 </tspan>
<tspan x="10" y="90">  ├─┬ async@2.0.1 </tspan>
<tspan x="10" y="106">  │ └── lodash@4.17.4 </tspan>
<tspan x="10" y="122">  ├── hoek@4.0.2 </tspan>
<tspan x="10" y="138">  ├─┬ joi@5.1.0 </tspan>
<tspan x="10" y="154">  │ ├── hoek@2.16.3 </tspan>
<tspan x="10" y="170">  │ ├── isemail@1.2.0 </tspan>
<tspan x="10" y="186">  │ ├── moment@2.18.1 </tspan>
<tspan x="10" y="202">  │ └─┬ topo@1.1.0 </tspan>
<tspan x="10" y="218">  │   └── hoek@2.16.3 </tspan>
<tspan x="10" y="234">  ├── lodash@3.10.1 </tspan>
<tspan x="10" y="250">  ├── marked@0.3.6 </tspan>
<tspan x="10" y="266">  ├── negotiator@0.6.1 </tspan>
<tspan x="10" y="282">  ├─┬ pug@2.0.0-beta6 </tspan>
<tspan x="10" y="298">  │ ├─┬ pug-code-gen@1.1.1 </tspan>
<tspan x="10" y="314">  │ │ ├─┬ constantinople@3.1.0 </tspan>
<tspan x="10" y="330">  │ │ │ ├── acorn@3.3.0 </tspan>
<tspan x="10" y="346">  │ │ │ └── is-expression@2.1.0 </tspan>
<tspan x="10" y="362">  │ │ ├── doctypes@1.1.0 </tspan>
<tspan x="10" y="378">  │ │ ├── js-stringify@1.0.2 </tspan>
<tspan x="10" y="394">  │ │ ├── pug-attrs@2.0.2 </tspan>
<tspan x="10" y="410">  │ │ ├── pug-error@1.3.2 </tspan>
<tspan x="10" y="426">  │ │ ├── void-elements@2.0.1 </tspan>
<tspan x="10" y="442">  │ │ └─┬ with@5.1.1 </tspan>
<tspan x="10" y="458">  │ │   └─┬ acorn-globals@3.1.0 </tspan>
<tspan x="10" y="474">  │ │     └── acorn@4.0.11 </tspan>
<tspan x="10" y="490">  │ ├─┬ pug-filters@1.2.4 </tspan>
<tspan x="10" y="506">  │ │ ├─┬ clean-css@3.4.25 </tspan>
<tspan x="10" y="522">  │ │ │ ├─┬ commander@2.8.1 </tspan>
<tspan x="10" y="538">  │ │ │ │ └── graceful-readlink@1.0.1 </tspan>
<tspan x="10" y="554">  │ │ │ └─┬ source-map@0.4.4 </tspan>
<tspan x="10" y="570">  │ │ │   └── amdefine@1.0.1 </tspan>
<tspan x="10" y="586">  │ │ ├─┬ jstransformer@1.0.0 </tspan>
<tspan x="10" y="602">  │ │ │ ├── is-promise@2.1.0 </tspan>
<tspan x="10" y="618">  │ │ │ └─┬ promise@7.1.1 </tspan>
<tspan x="10" y="634">  │ │ │   └── asap@2.0.5 </tspan>
<tspan x="10" y="650">  │ │ ├── pug-walk@1.1.2 </tspan>
<tspan x="10" y="666">  │ │ ├─┬ resolve@1.3.3 </tspan>
<tspan x="10" y="682">  │ │ │ └── path-parse@1.0.5 </tspan>
<tspan x="10" y="698">  │ │ └─┬ uglify-js@2.8.22 </tspan>
<tspan x="10" y="714">  │ │   ├── source-map@0.5.6 </tspan>
<tspan x="10" y="730">  │ │   ├── uglify-to-browserify@1.0.2 </tspan>
<tspan x="10" y="746">  │ │   └─┬ yargs@3.10.0 </tspan>
<tspan x="10" y="762">  │ │     ├── camelcase@1.2.1 </tspan>
<tspan x="10" y="778">  │ │     ├─┬ cliui@2.1.0 </tspan>
<tspan x="10" y="794">  │ │     │ ├─┬ center-align@0.1.3 </tspan>
<tspan x="10" y="810">  │ │     │ │ ├─┬ align-text@0.1.4 </tspan>
<tspan x="10" y="826">  │ │     │ │ │ ├─┬ kind-of@3.2.0 </tspan>
<tspan x="10" y="842">  │ │     │ │ │ │ └── is-buffer@1.1.5 </tspan>
<tspan x="10" y="858">  │ │     │ │ │ ├── longest@1.0.1 </tspan>
<tspan x="10" y="874">  │ │     │ │ │ └── repeat-string@1.6.1 </tspan>
<tspan x="10" y="890">  │ │     │ │ └── lazy-cache@1.0.4 </tspan>
<tspan x="10" y="906">  │ │     │ ├── right-align@0.1.3 </tspan>
<tspan x="10" y="922">  │ │     │ └── wordwrap@0.0.2 </tspan>
<tspan x="10" y="938">  │ │     ├── decamelize@1.2.0 </tspan>
<tspan x="10" y="954">  │ │     └── window-size@0.1.0 </tspan>
<tspan x="10" y="970">  │ ├─┬ pug-lexer@2.3.2 </tspan>
<tspan x="10" y="986">  │ │ ├─┬ character-parser@2.2.0 </tspan>
<tspan x="10" y="1002">  │ │ │ └─┬ is-regex@1.0.4 </tspan>
<tspan x="10" y="1018">  │ │ │   └─┬ has@1.0.1 </tspan>
<tspan x="10" y="1034">  │ │ │     └── function-bind@1.1.0 </tspan>
<tspan x="10" y="1050">  │ │ └─┬ is-expression@3.0.0 </tspan>
<tspan x="10" y="1066">  │ │   └── acorn@4.0.11 </tspan>
<tspan x="10" y="1082">  │ ├── pug-linker@1.0.2 </tspan>
<tspan x="10" y="1098">  │ ├─┬ pug-load@2.0.6 </tspan>
<tspan x="10" y="1114">  │ │ └── object-assign@4.1.1 </tspan>
<tspan x="10" y="1130">  │ ├─┬ pug-parser@2.0.2 </tspan>
<tspan x="10" y="1146">  │ │ └── token-stream@0.0.1 </tspan>
<tspan x="10" y="1162">  │ ├── pug-runtime@2.0.3 </tspan>
<tspan x="10" y="1178">  │ └── pug-strip-comments@1.0.2 </tspan>
<tspan x="10" y="1194">  ├── urijs@1.18.10 </tspan>
<tspan x="10" y="1210">  └── url-template@2.0.8</tspan>
</text>
</svg>
